<?xml version="1.0" encoding="utf-8"?>
<!-- Generator: Adobe Illustrator 24.0.2, SVG Export Plug-In . SVG Version: 6.00 Build 0)  -->
<svg version="1.1" id="Layer_1" xmlns="http://www.w3.org/2000/svg" xmlns:xlink="http://www.w3.org/1999/xlink" x="0px" y="0px"
	 viewBox="0 0 73 70" style="enable-background:new 0 0 73 70;" xml:space="preserve">
<style type="text/css">
	.st0{fill:#1D1D1B;}
</style>
<path class="st0" d="M4.6,16.4C-1.8,25.7-1,37.7,3.9,47.5C4,47.8,4.1,48,4.3,48.2l0.2,0.4c0,0.1,0.1,0.2,0.1,0.3
	c0.1,0.2,0.2,0.3,0.3,0.5l0.5,0.8l0.3,0.4l0.5,0.9l0.2,0.4c0.3,0.4,0.5,0.8,0.8,1.1l0.2,0.2c0.2,0.3,0.5,0.6,0.7,1l0.3,0.3L9,55.3
	l0.3,0.3c0.3,0.4,0.6,0.7,0.9,1.1c0,0,0,0,0.1,0.1c0.3,0.3,0.6,0.7,0.9,1l0.3,0.3l0.7,0.7l0.3,0.3c0.3,0.3,0.7,0.6,1,0.9l1.1,1
	l0.4,0.3l0.8,0.6l0.4,0.3l0.9,0.6l0.4,0.3c0.3,0.2,0.6,0.4,0.8,0.6l0.4,0.2c0.4,0.3,0.9,0.5,1.3,0.8l0.4,0.2l1,0.6
	c0.2,0.1,0.4,0.2,0.6,0.3l0.7,0.4l0.2,0.1l0.3,0.1l1.1,0.5l0.2,0.1c0.4,0.2,0.9,0.4,1.3,0.5l0.3,0.1l1.2,0.5l0.2,0.1
	c0.5,0.2,0.9,0.3,1.4,0.5l0.3,0.1c0.5,0.1,0.9,0.3,1.4,0.4c31.1,5.7,40.1-18.7,40.1-18.7c-7.6,9.9-21,12.5-33.8,9.6
	c-0.5-0.1-1-0.3-1.4-0.4l-0.4-0.1c-0.5-0.1-0.9-0.3-1.4-0.4L33.7,59c-0.4-0.1-0.8-0.3-1.2-0.4l-0.3-0.1c-0.4-0.2-0.9-0.4-1.3-0.5
	l-0.3-0.1l-1.1-0.5l-0.3-0.2c-0.3-0.1-0.6-0.3-0.9-0.5l-0.6-0.3c-0.3-0.2-0.7-0.4-1-0.6l-0.3-0.2c-0.4-0.3-0.9-0.5-1.3-0.8
	c-0.1-0.1-0.2-0.2-0.4-0.2l-0.9-0.6c-0.1-0.1-0.2-0.1-0.3-0.2l-0.9-0.6l-0.4-0.3l-0.8-0.6L21,51.8L20,51c0,0-0.1-0.1-0.1-0.1l-1.1-1
	l-0.3-0.3l-0.8-0.7l-0.3-0.3c-0.3-0.3-0.6-0.7-0.9-1c0,0,0,0,0,0c-0.3-0.4-0.6-0.7-0.9-1.1l-0.2-0.3l-0.7-0.8l-0.2-0.3l-0.8-1
	c-7.1-9.7-9.7-23-4-33.9 M24.6,8.6c-4.7,6.7-4.4,15.7-0.8,22.7c0.6,1.2,1.3,2.3,2.1,3.4c0.7,1,1.5,2.2,2.4,3c0.3,0.4,0.7,0.7,1,1.1
	l0.3,0.3c0.3,0.3,0.7,0.7,1.1,1c0,0,0,0,0,0c0.4,0.4,0.8,0.7,1.3,1l0.3,0.2c0.4,0.3,0.9,0.6,1.3,1l0,0c0.2,0.1,0.4,0.3,0.6,0.4
	c0.1,0.1,0.2,0.1,0.3,0.2c0.3,0.2,0.6,0.4,1,0.6l0.1,0.1l0.9,0.5c0.1,0.1,0.2,0.1,0.3,0.2l0.6,0.3c0,0,0.1,0,0.1,0
	c0.4,0.2,0.8,0.4,1.2,0.6l0.3,0.1c0.3,0.1,0.7,0.3,1,0.4l0.4,0.2c0.3,0.1,0.6,0.2,0.9,0.3l0.4,0.1c0.4,0.1,0.9,0.3,1.4,0.4
	c24,4,29.5-14.5,29.5-14.5c-5,7.2-14.7,10.6-25,7.9c-0.5-0.1-0.9-0.3-1.4-0.4c-0.1,0-0.3-0.1-0.4-0.1l-1-0.3l-0.5-0.2
	c-0.3-0.1-0.7-0.3-1-0.4l-0.3-0.1c-0.4-0.2-0.8-0.4-1.3-0.6l-0.6-0.3l-0.4-0.2c-0.3-0.1-0.5-0.3-0.8-0.4L39.9,37
	c-0.3-0.2-0.6-0.4-1-0.6c-0.1-0.1-0.2-0.1-0.3-0.2L38,35.8c-0.4-0.3-0.9-0.6-1.3-0.9l-0.3-0.2c-4.5-3.6-8.1-8.4-9.8-14
	c-1.8-5.7-1.4-12.2,1.7-17.4 M41.4,2.8c-2.7,4.1-3,9-1.1,13.5c2,4.7,6.1,8.4,10.9,10.2l0.6,0.2l0.3,0.1l0.9,0.2
	c13.3,2.6,16.8-6.8,17.8-8.2c-3.1,4.5-8.4,5.6-14.9,4c-0.5-0.1-1.1-0.3-1.6-0.5c-0.6-0.2-1.3-0.5-1.9-0.8c-1.2-0.6-2.3-1.2-3.3-2
	C43.2,15.3,39.6,6.8,43.4,0"/>
</svg>
